<?xml version="1.0" standalone="no"?>
<!DOCTYPE svg PUBLIC "-//W3C//DTD SVG 20010904//EN"
 "http://www.w3.org/TR/2001/REC-SVG-20010904/DTD/svg10.dtd">
<svg version="1.0" xmlns="http://www.w3.org/2000/svg"
 width="666.000000pt" height="375.000000pt" viewBox="0 0 666.000000 375.000000"
 preserveAspectRatio="xMidYMid meet">

<g transform="translate(0.000000,375.000000) scale(0.100000,-0.100000)"
fill="#000000" stroke="none">
<path d="M2334 3413 c-39 -43 -88 -98 -109 -121 -22 -24 -53 -60 -71 -79 l-31
-34 39 -97 c129 -314 141 -631 42 -1097 -51 -240 -50 -301 8 -447 26 -65 46
-96 96 -149 59 -64 156 -136 232 -175 65 -32 244 -105 358 -144 168 -58 304
-132 377 -206 36 -35 36 -36 63 -18 15 10 37 28 51 40 50 47 201 122 327 164
126 41 167 57 329 128 176 77 322 201 378 319 57 124 83 291 57 383 -23 87
-60 318 -70 447 -17 217 13 481 70 608 10 22 25 57 33 77 9 20 33 63 55 96
l40 60 -162 161 -161 161 -941 0 -940 0 -70 -77z m1070 -33 c20 0 21 -16 0
-24 -10 -4 -13 -13 -9 -27 6 -18 5 -19 -13 -10 -14 7 -23 8 -27 1 -10 -16 -25
-11 -18 6 4 11 -2 23 -18 35 l-24 19 33 0 c24 0 32 5 32 18 1 16 1 16 14 0 7
-10 21 -18 30 -18z m-1114 -191 c15 -28 -4 -75 -33 -83 -52 -14 -57 -9 -57 49
l0 55 40 0 c30 0 42 -5 50 -21z m154 -6 c-1 -16 -2 -40 -3 -55 -2 -46 -28 -34
-33 15 -6 52 -1 67 21 67 12 0 16 -8 15 -27z m57 18 c-7 -5 -10 -14 -6 -20 5
-9 10 -9 20 -1 8 6 26 10 42 8 23 -2 29 -8 31 -34 6 -57 -54 -68 -83 -15 l-14
26 -1 -32 c0 -23 -5 -33 -15 -33 -12 0 -15 13 -15 55 0 53 1 55 28 55 19 0 23
-3 13 -9z m179 -45 l0 -54 -32 1 c-31 2 -33 4 -33 42 0 35 3 40 23 39 12 0 22
5 22 13 0 7 5 13 10 13 6 0 10 -24 10 -54z m50 -1 c0 -30 -4 -55 -10 -55 -5 0
-10 25 -10 55 0 30 5 55 10 55 6 0 10 -25 10 -55z m30 0 c0 -30 -4 -55 -10
-55 -5 0 -10 25 -10 55 0 30 5 55 10 55 6 0 10 -25 10 -55z m90 0 c0 -30 -4
-55 -10 -55 -5 0 -10 25 -10 55 0 30 5 55 10 55 6 0 10 -25 10 -55z m141 48
c5 -49 5 -103 -1 -103 -21 0 -44 68 -33 97 5 14 32 18 34 6z m397 -10 c12 -12
13 -18 4 -21 -14 -4 -16 -42 -2 -42 6 0 10 -7 10 -16 0 -9 -7 -14 -17 -12 -25
5 -40 108 -16 108 2 0 12 -8 21 -17z m52 -38 c0 -42 -3 -55 -15 -55 -12 0 -15
13 -15 55 0 42 3 55 15 55 12 0 15 -13 15 -55z m320 1 l0 -54 -47 4 c-27 2
-54 3 -60 4 -8 0 -13 15 -13 40 0 40 0 40 39 40 39 0 40 -1 44 -37 3 -35 4
-34 5 10 2 34 6 47 17 47 11 0 15 -13 15 -54z m92 17 c2 -26 8 -38 18 -38 10
0 16 12 18 38 2 24 8 37 18 37 16 0 19 -36 4 -74 -8 -21 -16 -26 -44 -26 -38
0 -46 12 -46 66 0 49 28 46 32 -3z m188 -18 c0 -30 -4 -55 -10 -55 -5 0 -10
25 -10 55 0 30 5 55 10 55 6 0 10 -25 10 -55z m373 43 c4 -10 8 -9 17 2 9 11
13 12 17 3 2 -7 16 -13 30 -13 17 0 27 -7 31 -22 l5 -22 8 22 c5 12 15 22 24
22 13 0 12 -7 -5 -52 -11 -29 -20 -54 -20 -55 0 -2 -7 -3 -15 -3 -11 0 -14 7
-10 23 4 16 -1 31 -15 48 l-21 24 6 -38 c5 -34 4 -38 -12 -35 -12 2 -19 14
-21 36 -4 43 -22 41 -22 -3 0 -25 -4 -35 -15 -35 -12 0 -15 12 -14 55 1 37 6
55 15 55 7 0 15 -6 17 -12z m-2021 -48 l4 -40 -43 0 c-50 0 -59 11 -43 51 10
24 18 29 45 29 31 0 33 -2 37 -40z m548 -5 c0 -25 -4 -45 -10 -45 -5 0 -10 16
-10 35 0 26 -3 33 -15 29 -9 -4 -15 -19 -15 -35 0 -16 -4 -29 -10 -29 -5 0
-10 20 -10 43 0 43 1 44 35 45 35 1 35 1 35 -43z m148 33 c30 -30 0 -85 -41
-74 -30 7 -43 37 -27 66 12 22 49 27 68 8z m82 -3 c0 -8 -7 -15 -15 -15 -10 0
-15 -10 -15 -30 0 -20 -5 -30 -15 -30 -11 0 -15 12 -15 45 0 43 1 45 30 45 20
0 30 -5 30 -15z m80 -30 c0 -25 -4 -45 -10 -45 -5 0 -10 16 -10 36 0 21 -4 33
-10 29 -5 -3 -10 -19 -10 -36 0 -19 -5 -29 -15 -29 -11 0 -15 12 -15 45 0 45
0 45 35 45 35 0 35 0 35 -45z m92 6 c4 -42 -8 -51 -60 -43 -24 4 -24 3 -12 80
0 1 15 2 34 2 32 0 34 -2 38 -39z m193 19 c15 -49 -21 -81 -61 -55 -26 17 -33
60 -11 68 31 13 66 6 72 -13z m93 -27 c2 -34 0 -43 -12 -43 -12 0 -16 10 -16
36 0 45 -24 42 -28 -4 -5 -48 -22 -38 -22 12 l0 44 38 -1 c36 -2 37 -3 40 -44z
m380 0 c2 -34 0 -43 -12 -43 -12 0 -16 10 -16 36 0 45 -24 42 -28 -4 -5 -48
-22 -38 -22 12 l0 44 38 -1 c36 -2 37 -3 40 -44z m72 25 l0 -22 16 22 c18 27
46 30 38 5 -5 -17 -5 -17 6 0 14 21 53 22 70 2 10 -12 10 -21 0 -45 -17 -42
-53 -40 -78 5 -10 19 -11 18 -17 -8 -11 -41 -39 -35 -53 12 -15 49 -15 51 3
51 9 0 15 -9 15 -22z m283 15 c5 -3 3 -9 -4 -14 -10 -6 -11 -9 -1 -9 21 0 14
-48 -8 -55 -24 -8 -60 2 -60 17 0 6 9 8 20 5 29 -7 24 6 -7 21 -38 17 -43 15
-43 -13 0 -16 -6 -25 -15 -25 -11 0 -15 11 -15 38 l0 39 62 1 c34 0 66 -2 71
-5z m-933 -372 c86 -14 159 -46 230 -101 36 -27 67 -49 70 -50 3 0 48 23 100
50 184 98 311 126 318 71 3 -19 -12 -40 -73 -98 -43 -40 -115 -98 -160 -129
-82 -55 -83 -56 -69 -82 25 -48 37 -135 31 -227 -2 -49 -8 -99 -12 -110 -5
-14 -4 -16 3 -6 6 8 12 9 16 3 3 -5 37 -28 76 -51 79 -47 195 -151 203 -181 9
-34 -20 -53 -69 -45 -39 6 -251 81 -291 104 -15 8 -30 -2 -85 -55 -215 -208
-562 -203 -768 12 l-62 65 -112 -47 c-61 -25 -130 -55 -153 -65 -49 -22 -133
-36 -133 -23 0 19 33 55 93 101 34 26 69 55 78 63 9 8 49 37 88 64 68 47 71
51 66 80 -5 23 -4 27 4 16 6 -8 11 -21 11 -29 0 -19 51 -131 60 -131 14 0 19
13 10 30 -9 17 -2 18 87 16 54 0 98 -5 100 -11 1 -5 -15 -18 -38 -27 -34 -15
-41 -15 -46 -2 -3 7 -11 14 -19 14 -17 0 -17 -5 -4 -30 13 -25 -29 -37 -48
-13 -9 13 -15 14 -24 5 -10 -10 2 -26 56 -77 118 -110 238 -152 409 -143 129
7 222 46 317 135 66 62 81 91 40 78 -13 -4 -22 1 -30 15 -6 11 -16 18 -21 14
-12 -7 -69 15 -69 27 0 5 36 8 80 7 63 -1 78 -4 70 -14 -8 -8 -7 -13 2 -16 14
-5 58 52 58 76 0 8 7 37 16 62 22 65 20 194 -3 261 -10 29 -22 51 -28 50 -5
-1 -9 -6 -8 -12 24 -122 26 -146 15 -157 -17 -17 -22 -8 -37 67 -16 73 -19 80
-33 71 -5 -3 -4 -27 4 -58 21 -80 20 -85 -24 -86 -36 -2 -40 1 -58 38 -14 29
-25 40 -41 40 -13 0 -23 5 -23 10 0 6 -16 10 -35 10 -30 0 -35 3 -35 23 0 12
-3 32 -6 43 -5 17 0 24 24 32 29 10 31 8 46 -23 9 -18 16 -40 16 -49 0 -17 15
-22 24 -7 3 5 -1 28 -9 51 -20 56 -20 57 15 75 l29 15 21 -39 c21 -42 37 -57
48 -46 4 4 -5 29 -21 56 -15 27 -25 49 -23 49 2 0 11 3 19 6 11 4 24 -9 42
-40 30 -51 31 -52 38 -32 7 18 -57 111 -109 160 -22 19 -75 54 -119 76 -188
96 -411 70 -575 -66 -54 -45 -112 -122 -103 -137 3 -6 16 2 29 18 21 26 25 28
49 17 25 -11 25 -13 10 -41 -8 -17 -15 -35 -15 -41 0 -15 30 -13 30 3 0 6 7
20 15 30 13 18 15 18 44 1 29 -17 29 -18 15 -47 -16 -29 -13 -57 5 -57 5 0 15
16 21 35 10 30 15 35 33 29 32 -9 35 -15 30 -51 -4 -27 -10 -33 -38 -39 -18
-3 -41 -4 -51 -2 -13 2 -26 -11 -45 -47 -26 -49 -35 -54 -81 -46 -13 2 -9 39
11 96 12 35 16 57 9 61 -5 3 -14 2 -18 -2 -10 -10 -40 -119 -40 -145 0 -11 -9
-16 -31 -17 l-32 -1 7 61 c3 33 15 80 26 106 16 36 18 47 8 53 -7 5 -14 5 -16
1 -32 -85 -52 -132 -49 -112 2 14 14 48 25 76 l21 51 -49 32 c-27 18 -67 46
-89 64 -22 18 -58 45 -80 61 -68 49 -117 104 -104 117 9 9 34 5 100 -16 48
-15 93 -31 98 -35 6 -4 56 -27 112 -50 l102 -42 63 47 c130 98 262 132 418
106z m29 -56 c19 -11 -66 -46 -114 -47 -42 0 -89 15 -113 35 -12 9 -11 12 5
19 22 10 205 4 222 -7z m-344 -49 c-16 -13 -36 -21 -43 -18 -8 3 1 12 25 23
51 23 53 23 18 -5z m68 -27 c-30 -31 -39 -36 -51 -26 -12 10 -9 17 23 44 53
46 75 32 28 -18z m347 20 c41 -30 42 -33 25 -45 -16 -12 -22 -9 -51 24 -54 61
-42 70 26 21z m80 -15 c0 -2 -9 0 -20 6 -11 6 -20 13 -20 16 0 2 9 0 20 -6 11
-6 20 -13 20 -16z m-381 -26 c-12 -24 -22 -44 -23 -45 -1 -1 -8 2 -16 7 -12 7
-8 16 20 45 18 19 35 35 37 35 2 0 -6 -19 -18 -42z m200 -15 l20 -42 -20 -6
c-27 -9 -137 -7 -171 2 l-27 8 18 40 18 40 71 0 70 0 21 -42z m64 3 c14 -20
14 -25 2 -29 -9 -4 -21 8 -34 34 -20 37 -20 39 -2 30 10 -6 25 -21 34 -35z
m-458 -23 c-16 -21 -30 -40 -31 -42 -2 -1 -12 4 -24 12 -20 14 -20 15 21 52
29 26 44 34 52 26 7 -7 2 -22 -18 -48z m651 -3 c9 -11 9 -17 1 -22 -13 -9 -68
51 -60 65 5 8 37 -15 59 -43z m-559 9 c7 -7 4 -22 -11 -50 -22 -40 -40 -48
-69 -26 -16 11 -15 15 14 50 32 38 47 45 66 26z m500 -21 l23 -32 -23 -13
c-34 -19 -42 -16 -59 20 -15 31 -15 34 1 45 25 17 34 14 58 -20z m-445 -58
c-12 -38 -19 -46 -34 -42 -29 7 -30 19 -7 60 16 27 28 38 40 35 15 -4 15 -8 1
-53z m362 18 c18 -30 18 -32 1 -45 -27 -19 -30 -17 -43 24 -9 29 -9 39 1 45
19 12 21 10 41 -24z m-189 -1 c44 0 86 1 94 4 10 3 18 -10 27 -38 l12 -41 -43
-11 c-79 -20 -255 -8 -255 17 0 4 8 25 17 48 16 39 19 41 43 32 14 -6 61 -11
105 -11z m-15 -122 c36 1 85 3 110 5 l45 5 0 -32 c0 -31 2 -33 45 -39 46 -7
84 -30 74 -45 -3 -5 -1 -9 4 -9 13 0 33 -50 26 -62 -4 -6 -3 -8 2 -5 10 6 96
-154 88 -162 -2 -2 -15 6 -28 18 -21 19 -33 22 -80 19 -31 -1 -57 0 -59 4 -4
13 -118 30 -154 23 -19 -3 -43 -15 -54 -26 -19 -19 -19 -18 -19 108 0 116 2
129 22 150 23 24 14 31 -13 10 -14 -10 -17 -35 -18 -147 -1 -74 -4 -137 -7
-140 -3 -2 -10 3 -15 12 -22 39 -99 42 -241 10 l-87 -20 13 32 c7 17 33 72 57
123 47 101 44 99 166 129 40 10 71 20 68 22 -2 2 -27 -1 -55 -8 -28 -7 -53
-10 -55 -8 -2 2 -2 14 2 26 5 21 9 22 52 15 25 -4 75 -8 111 -8z m-533 -137
c-2 -13 -4 -3 -4 22 0 25 2 35 4 23 2 -13 2 -33 0 -45z m203 -75 c-22 -55 -40
-106 -40 -112 0 -15 104 -5 173 16 65 21 135 13 162 -19 24 -29 47 -26 69 8
14 21 24 24 76 24 32 0 71 -5 87 -11 15 -7 60 -18 98 -25 l70 -12 -85 5 c-47
3 -100 12 -119 19 -57 24 -90 18 -127 -21 -37 -39 -68 -45 -84 -15 -18 33 -49
39 -130 25 -112 -19 -217 -28 -223 -18 -5 8 104 245 110 239 2 -2 -15 -48 -37
-103z m-203 -20 c-2 -16 -4 -5 -4 22 0 28 2 40 4 28 2 -13 2 -35 0 -50z m97
-15 c6 -62 4 -75 -11 -85 -9 -7 -20 -10 -24 -6 -10 12 -29 98 -29 132 0 27 3
31 29 31 28 0 28 -1 35 -72z m66 46 c-6 -14 -17 -36 -25 -47 -14 -20 -15 -19
-15 26 0 43 2 47 25 47 22 0 24 -2 15 -26z m790 -19 c0 -25 -3 -45 -7 -45 -9
1 -53 67 -53 81 0 5 14 9 30 9 29 0 30 -2 30 -45z m59 3 c-1 -59 -21 -120 -36
-110 -17 11 5 152 24 152 9 0 13 -14 12 -42z m-682 -174 c-3 -3 -12 -4 -19 -1
-8 3 -5 6 6 6 11 1 17 -2 13 -5z m143 -4 c0 -5 9 -10 20 -10 18 0 20 -7 20
-85 0 -114 -17 -115 -71 -1 -21 46 -39 86 -39 89 0 5 27 12 58 16 6 0 12 -3
12 -9z m194 -27 c-5 -21 -65 -144 -78 -160 -1 -1 -12 0 -24 4 -20 5 -22 11
-22 89 0 93 -4 89 93 93 36 1 37 0 31 -26z m-250 -83 c26 -49 43 -90 38 -90
-12 0 -70 67 -104 119 -21 34 -25 47 -15 53 26 16 37 5 81 -82z m322 76 c6
-16 -30 -77 -77 -130 -48 -55 -52 -43 -8 31 21 37 39 75 39 84 0 30 36 42 46
15z m-393 -91 c22 -33 46 -64 54 -68 17 -11 17 -27 -1 -27 -22 0 -165 121
-166 141 0 11 65 34 69 24 2 -5 22 -37 44 -70z m489 38 c-9 -15 -153 -133
-164 -133 -4 0 18 36 48 79 29 44 54 84 54 90 0 7 13 4 35 -6 23 -11 32 -20
27 -30z m-568 -65 c39 -34 76 -66 81 -71 26 -24 -86 40 -133 76 -38 29 -49 43
-40 48 18 12 13 15 92 -53z m582 16 c-27 -25 -68 -54 -90 -65 l-41 -20 30 23
c17 12 50 42 75 65 25 23 52 42 60 42 8 0 -7 -20 -34 -45z m-243 -91 l32 -17
-30 -7 c-39 -9 -122 -9 -160 0 l-30 7 35 16 c47 22 114 22 153 1z m637 -22 c0
-5 29 -70 65 -145 58 -121 65 -142 65 -197 0 -88 -25 -129 -104 -167 -120 -59
-178 -66 -246 -29 -50 26 -75 62 -158 223 -70 137 -71 128 19 168 l55 24 70
-140 c38 -77 76 -149 85 -159 21 -24 74 -25 98 -1 35 33 42 57 27 99 -11 31
-108 240 -123 266 -4 7 112 65 135 66 6 1 12 -3 12 -8z m-1235 -66 c61 -29
121 -63 134 -75 75 -72 65 -220 -21 -332 -16 -21 -53 -49 -84 -64 -53 -26 -59
-27 -107 -15 -29 7 -86 28 -127 46 -41 18 -92 40 -112 48 l-37 16 44 102 c25
56 49 107 54 113 5 6 28 56 51 111 23 55 44 104 47 108 7 11 33 1 158 -58z
m603 -467 l-3 -243 -75 0 -75 0 -3 243 -2 242 80 0 80 0 -2 -242z"/>
<path d="M2230 3160 c0 -33 11 -38 30 -15 10 12 10 18 0 30 -19 23 -30 18 -30
-15z"/>
<path d="M2535 3160 c-4 -6 -3 -14 0 -20 9 -15 35 -12 35 4 0 17 -27 29 -35
16z"/>
<path d="M2630 3149 c0 -24 23 -21 28 4 2 10 -3 17 -12 17 -10 0 -16 -9 -16
-21z"/>
<path d="M3665 3170 c-3 -5 1 -10 10 -10 9 0 13 5 10 10 -3 6 -8 10 -10 10 -2
0 -7 -4 -10 -10z"/>
<path d="M3670 3140 c-13 -8 -12 -10 3 -10 9 0 17 5 17 10 0 12 -1 12 -20 0z"/>
<path d="M2345 3170 c-3 -5 -2 -10 4 -10 5 0 13 5 16 10 3 6 2 10 -4 10 -5 0
-13 -4 -16 -10z"/>
<path d="M2345 3140 c-3 -5 -1 -10 4 -10 6 0 11 5 11 10 0 6 -2 10 -4 10 -3 0
-8 -4 -11 -10z"/>
<path d="M3048 3163 c7 -3 16 -2 19 1 4 3 -2 6 -13 5 -11 0 -14 -3 -6 -6z"/>
<path d="M3045 3130 c4 -6 11 -8 16 -5 14 9 11 15 -7 15 -8 0 -12 -5 -9 -10z"/>
<path d="M3295 3170 c-3 -5 -1 -10 4 -10 6 0 11 5 11 10 0 6 -2 10 -4 10 -3 0
-8 -4 -11 -10z"/>
<path d="M3295 3140 c-3 -5 -1 -10 4 -10 6 0 11 5 11 10 0 6 -2 10 -4 10 -3 0
-8 -4 -11 -10z"/>
<path d="M3480 3150 c0 -11 7 -20 15 -20 8 0 15 6 15 14 0 8 -7 16 -15 20 -10
4 -15 -1 -15 -14z"/>
<path d="M4168 3163 c7 -3 16 -2 19 1 4 3 -2 6 -13 5 -11 0 -14 -3 -6 -6z"/>
<path d="M4165 3130 c4 -6 11 -8 16 -5 14 9 11 15 -7 15 -8 0 -12 -5 -9 -10z"/>
<path d="M2590 2755 c43 -47 276 -215 283 -204 2 2 15 21 30 41 15 20 27 39
27 41 0 3 -44 24 -97 47 -54 24 -122 54 -150 67 -29 13 -67 26 -85 30 l-33 6
25 -28z"/>
<path d="M4040 2773 c-32 -11 -207 -96 -248 -120 l-44 -25 20 -21 c11 -12 29
-37 39 -54 l20 -33 86 60 c93 65 207 168 207 188 0 12 -51 15 -80 5z"/>
<path d="M3826 2049 c-16 -28 -26 -52 -24 -53 1 -2 40 -19 84 -39 141 -62 234
-83 234 -53 0 29 -220 196 -257 196 -6 0 -22 -23 -37 -51z"/>
<path d="M2772 2050 c-35 -22 -103 -70 -152 -106 -82 -60 -105 -84 -81 -84 13
0 324 130 333 138 3 4 -4 26 -16 50 l-22 43 -62 -41z"/>
<path d="M3418 2413 c7 -3 16 -2 19 1 4 3 -2 6 -13 5 -11 0 -14 -3 -6 -6z"/>
<path d="M2702 1530 c-29 -60 -52 -113 -52 -119 0 -5 20 -16 45 -25 55 -18 90
-9 107 29 6 14 15 25 19 25 13 0 41 108 34 130 -6 20 -71 70 -90 70 -6 0 -34
-49 -63 -110z"/>
<path d="M3275 682 c-77 -26 -115 -80 -115 -165 1 -62 12 -85 63 -125 70 -56
147 -50 216 15 71 68 69 164 -6 235 -45 43 -103 58 -158 40z"/>
</g>
</svg>
